<svg width="30" height="28" viewBox="0 0 30 28" fill="none" xmlns="http://www.w3.org/2000/svg">
<path d="M13.2133 12.1302C13.6288 11.964 14.1274 11.7978 14.5429 11.5485C15.1246 11.2992 15.6233 10.9668 16.3712 10.6344C15.9557 12.1302 15.6233 13.5429 15.2077 14.8726C15.0415 15.4543 15.1246 15.7036 15.7895 15.7036C16.2881 15.7036 16.7867 15.7867 17.2853 15.8698C18.1163 16.036 18.1994 16.036 18.3656 15.205C18.5318 13.9585 18.698 12.795 18.9474 11.3823C19.446 12.2964 19.8615 13.0443 20.277 13.7923C20.5263 14.2909 20.9418 14.374 21.3573 14.0416C21.939 13.5429 22.5208 13.0443 23.0194 12.4626C23.3518 12.1302 23.2687 11.7147 22.8532 11.2992C22.1052 10.6344 21.5235 9.88643 20.6925 9.13851C22.0221 8.14128 23.3518 6.97785 24.7645 6.06372C25.4293 5.64821 25.4293 5.23269 25.0969 4.65098C24.9307 4.40167 24.8476 4.15236 24.6814 3.98616C24.1828 3.40444 23.7673 3.32134 23.1025 3.73685C21.8559 4.56787 20.6094 5.3989 19.2798 6.31303C19.1967 5.98062 19.1136 5.81441 19.0305 5.5651C18.6149 4.15236 18.1163 2.73962 17.7008 1.32688C17.3684 0.412749 17.036 0.246545 16.1219 0.41275C15.8726 0.41275 15.7064 0.495853 15.457 0.578956C14.2936 0.828264 14.2105 0.994466 14.626 2.0748C15.2077 3.65375 15.7064 5.2327 16.2881 6.72854C16.4543 7.14405 16.3712 7.39336 15.8726 7.55957C14.7922 7.97508 13.7119 8.47369 12.6316 8.97231C12.3823 9.13851 11.9667 9.38782 11.9667 9.63713C11.9667 10.3019 12.1329 10.8837 12.2161 11.5485C12.3823 12.1302 12.7978 12.2964 13.2133 12.1302ZM0.498599 14.1247C0.83101 14.5402 1.24652 14.8726 1.57893 15.2881C2.32685 16.1191 3.07478 16.9501 3.8227 17.7812C3.07478 18.3629 2.40996 18.8615 1.74514 19.277C-1.58847e-05 20.4405 -0.0831191 20.0249 1.16342 22.1856C1.49583 22.8504 1.99445 22.8504 2.49306 22.3518C2.74237 22.1025 2.90857 21.8532 3.15788 21.6039C3.57339 21.1053 4.07201 20.6067 4.48752 20.108C4.48752 21.3546 4.40442 22.6011 4.23821 23.7646C4.07201 24.5125 4.32132 24.8449 5.06924 24.8449C5.56785 24.8449 5.98337 24.8449 6.48198 24.8449C7.31301 24.7618 7.47921 24.5125 7.31301 23.7646C7.1468 22.7673 6.89749 21.7701 6.64819 20.7729L6.73129 20.6067C7.2299 21.3546 7.64542 22.1856 8.14403 22.9335C8.55954 23.6815 9.05816 23.7646 9.72298 23.1828C10.0554 22.8504 10.4709 22.3518 10.8864 21.8532C11.3019 21.3546 11.3019 21.1053 10.7202 20.6898C9.47367 19.7756 8.31024 18.8615 7.1468 17.8643C7.72852 16.7839 8.31023 15.7867 8.89195 14.7895C9.80608 13.1274 9.80608 13.0443 8.06093 12.2133C7.2299 11.8809 6.89749 11.964 6.64818 12.795C6.31577 13.626 5.98336 14.374 5.65096 15.2881C5.40165 14.9557 5.23544 14.7895 5.06924 14.5402C4.40442 13.7092 3.73959 12.795 3.07477 11.964C2.74237 11.4654 2.32686 11.3823 1.91134 11.8809C1.57893 12.2964 1.16342 12.6288 0.747906 12.8781C0.0830867 13.2936 -1.64731e-05 13.7092 0.498599 14.1247ZM22.0221 17.1164C22.0221 17.1164 21.939 17.1995 21.8559 17.1995C21.4404 17.4488 21.3573 17.6981 21.6066 18.1967C22.1884 19.277 22.687 20.3573 23.1856 21.4377C22.3546 21.9363 21.6897 22.4349 20.9418 22.7673C18.8643 23.8477 19.5291 24.0139 20.6094 25.3435C21.0249 25.759 21.3573 25.8421 21.8559 25.5097C22.3546 25.0942 22.9363 24.6787 23.518 24.2632C23.4349 25.0111 23.2687 25.6759 23.1856 26.3407C23.0194 27.338 23.1025 27.4211 24.0997 27.5873C24.2659 27.5873 24.349 27.5873 24.5152 27.5873C25.2631 27.6704 25.5956 27.338 25.6787 26.59C25.7618 25.759 25.8449 24.928 25.928 23.9308C26.5097 24.5956 27.0083 25.1773 27.59 25.759C28.0886 26.3407 28.5041 26.2576 28.8366 25.5097C29.169 24.7618 29.4183 24.097 29.7507 23.4321C30 22.7673 29.8338 22.518 29.169 22.3518C28.5872 22.1856 27.9224 22.0194 27.3407 21.8532L27.0914 21.6039C27.6731 21.1053 28.3379 20.6898 28.9197 20.108C29.5014 19.5263 29.4183 18.9446 28.8365 18.3629C28.6703 18.2798 28.5041 18.1967 28.3379 18.0305C27.6731 17.4488 27.3407 17.4488 26.759 18.1967C26.3435 18.6953 25.928 19.277 25.5125 19.8587C25.0969 19.1108 24.7645 18.446 24.4321 17.7812C23.6842 16.2853 23.518 16.2022 22.0221 17.1164Z" fill="#E9E1CA"/>
</svg>
