<svg width="22" height="27" viewBox="0 0 22 27" fill="none" xmlns="http://www.w3.org/2000/svg">
<path d="M9.3 17.8C9.5 17.6 9.6 17.4 9.8 17.2L11.8 16.7L14 18.3C14.2 18.6 14.4 18.8 14.5 19C15.3 20.2 16.4 21.5 17.3 22.5C17.5 22.6 17.6 22.8 17.6 23C17.6 23.5 17.8 23.7 18.3 23.9C18.8 24 19.2 24.1 19.6 23.8C20.2 23.5 20.7 23.2 21.2 22.8L21.5 22.5C21.2 22.2 21 21.9 20.8 21.7C18.9 19.3 17 16.6 14.5 14.7C14.2 14.5 13.7 14.1 13.8 13.7V13.2L14.4 11.7C14.7 11.3 15 11 15.2 10.7C16.8 8.6 19 6.9 19.5 4.2C19.6 3.5 19.6 3.5 18.9 3.4C18.7 3.3 18.5 3.5 18.4 3.6C17 5 15.6 6.3 14.2 7.7L12.488 9.4L10.8 10.2L9.9 9.8L9.5 9.4C7.7 7.1 5.8 4.9 3.8 2.8C2.9 1.9 1.9 1.2 1.2 0.1C1.2 0 1.1 0 1 0C0.3 2 1.5 4.3 2.9 5.6C3.6 6.3 4.3 7.1 4.9 7.9C5.3 8.5 5.6 9 6 9.6C6.1 9.7 6.2 9.9 6.3 10.1C7.30005 11.2 8.2 12.6 9 13.2C6.6 16.1 3.8 18.7 1.7 21.9C1.1 22.8 0.5 23.7 0.1 24.7C0 24.8 0 25 0 25.2C0.3 25.4 0.4 25.5 0.6 25.6C2.4 28 8.1 19.2 9.3 17.8Z" fill="#222222"/>
</svg>
