<svg width="27" height="28" viewBox="0 0 27 28" fill="none" xmlns="http://www.w3.org/2000/svg">
<path d="M21.5107 14.5862C23.2151 13.2608 25.2441 12.2473 26.2991 10.2981C26.9484 8.9727 27.5165 7.56931 26.218 6.32186C24.7571 4.91847 23.3774 4.76254 21.5107 5.69813C20.2934 6.32186 19.076 7.10152 17.7774 7.72524C17.4528 7.88117 17.047 8.271 16.6412 7.95914C16.2354 7.64728 16.56 7.17948 16.6412 6.86762C17.2905 5.23034 17.6151 3.59305 17.3716 1.79984C17.2093 0.318488 16.3166 -0.227273 14.9369 0.0845907C12.989 0.47442 11.447 1.56594 10.7166 3.35916C10.1485 4.76254 9.74268 6.16593 9.17457 8.03711C8.20066 5.93203 7.63255 4.13881 6.334 2.73543C5.11662 1.41001 3.1688 1.17611 2.03257 2.18967C0.165913 3.90492 -0.0775639 6.24389 1.46446 8.19304C2.11373 9.05066 2.763 9.98625 3.49344 10.8439C4.30503 11.7795 4.22387 12.4812 3.33112 13.3388C1.22098 15.5998 -0.0775639 18.1727 0.00359513 21.2913C0.0847542 23.2404 1.46446 24.0981 3.41228 23.3184C4.38619 22.9286 5.36009 22.3828 6.334 21.993C6.7398 21.7591 7.30791 21.2913 7.79487 21.7591C8.1195 22.071 7.95719 22.6167 7.71371 23.0845C7.38907 24.0201 7.14559 24.9557 7.22675 25.9693C7.30791 27.3726 7.95719 27.9964 9.49921 27.9964C12.6644 28.0743 14.6122 26.9048 15.7485 23.9421C16.1543 22.7727 16.56 22.7727 17.6151 23.4743C19.1571 24.5659 20.4557 25.8913 22.3223 26.515C23.9455 27.0608 24.8383 26.515 25.0006 24.8777C25.3252 21.6811 23.6209 19.4201 21.3484 17.393C19.7253 15.9117 19.7253 16.0676 21.5107 14.5862Z" fill="#222222"/>
</svg>
